<svg width="17" height="12" viewBox="0 0 17 12" fill="none" xmlns="http://www.w3.org/2000/svg">
<path fill-rule="evenodd" clip-rule="evenodd" d="M16.8126 6.00002C16.8126 5.85084 16.75 5.70776 16.6387 5.60227C16.5273 5.49678 16.3763 5.43752 16.2188 5.43752L2.21465 5.43752L5.95171 1.89827C6.0632 1.79265 6.12583 1.64939 6.12583 1.50002C6.12583 1.35065 6.0632 1.20739 5.95171 1.10177C5.84022 0.99615 5.68901 0.936812 5.53133 0.936811C5.37366 0.936812 5.22245 0.99615 5.11096 1.10177L0.36096 5.60177C0.305666 5.65402 0.261796 5.7161 0.231863 5.78443C0.201931 5.85277 0.186523 5.92603 0.186523 6.00002C0.186523 6.07401 0.201931 6.14727 0.231863 6.21561C0.261796 6.28395 0.305666 6.34602 0.36096 6.39827L5.11096 10.8983C5.16616 10.9506 5.2317 10.9921 5.30383 11.0204C5.37596 11.0487 5.45326 11.0632 5.53133 11.0632C5.68901 11.0632 5.84022 11.0039 5.95171 10.8983C6.0632 10.7926 6.12583 10.6494 6.12583 10.5C6.12583 10.3506 6.0632 10.2074 5.95171 10.1018L2.21465 6.56252L16.2188 6.56252C16.3763 6.56252 16.5273 6.50326 16.6387 6.39777C16.75 6.29228 16.8126 6.14921 16.8126 6.00002Z" fill="#333"/>
</svg>
