<svg width="17" height="12" viewBox="0 0 17 12" fill="none" xmlns="http://www.w3.org/2000/svg">
<path fill-rule="evenodd" clip-rule="evenodd" d="M0.187416 5.99998C0.187416 6.14916 0.249971 6.29224 0.36132 6.39773C0.472669 6.50321 0.623693 6.56248 0.781166 6.56248L14.7854 6.56248L11.0483 10.1017C10.9368 10.2073 10.8742 10.3506 10.8742 10.5C10.8742 10.6493 10.9368 10.7926 11.0483 10.8982C11.1598 11.0038 11.311 11.0632 11.4687 11.0632C11.6263 11.0632 11.7775 11.0038 11.889 10.8982L16.639 6.39823C16.6943 6.34598 16.7382 6.2839 16.7681 6.21557C16.7981 6.14723 16.8135 6.07397 16.8135 5.99998C16.8135 5.92599 16.7981 5.85273 16.7681 5.78439C16.7382 5.71605 16.6943 5.65398 16.639 5.60173L11.889 1.10173C11.8338 1.04943 11.7683 1.00794 11.6962 0.979639C11.624 0.951335 11.5467 0.936767 11.4687 0.936767C11.311 0.936767 11.1598 0.996105 11.0483 1.10173C10.9368 1.20735 10.8742 1.35061 10.8742 1.49998C10.8742 1.64935 10.9368 1.79261 11.0483 1.89823L14.7854 5.43748L0.781166 5.43748C0.623693 5.43748 0.472669 5.49674 0.36132 5.60223C0.249971 5.70772 0.187416 5.85079 0.187416 5.99998Z" fill="#333"/>
</svg>
