<svg width="13" height="13" viewBox="0 0 13 13" fill="none" xmlns="http://www.w3.org/2000/svg">
<path d="M9.3125 12.125C4.66016 12.125 0.875 8.3398 0.875 3.68746C0.876759 2.88945 1.16825 2.11922 1.69527 1.51999C2.22229 0.920763 2.94898 0.533301 3.74023 0.429646C3.94194 0.407282 4.14553 0.449749 4.32147 0.55089C4.49742 0.652032 4.63657 0.806588 4.71875 0.992146L5.89648 3.74019C5.95758 3.88283 5.98207 4.03848 5.96774 4.19299C5.95342 4.3475 5.90073 4.49598 5.81445 4.62496L4.8418 6.11324C5.28224 7.00708 6.00796 7.72868 6.9043 8.16402L8.375 7.1855C8.50384 7.09865 8.6527 7.04608 8.80751 7.03275C8.96232 7.01942 9.11797 7.04578 9.25977 7.10933L12.0078 8.28121C12.1934 8.36339 12.3479 8.50254 12.4491 8.67849C12.5502 8.85443 12.5927 9.05802 12.5703 9.25972C12.4667 10.051 12.0792 10.7777 11.48 11.3047C10.8807 11.8317 10.1105 12.1232 9.3125 12.125ZM3.85742 1.36129C3.29196 1.43398 2.77239 1.71028 2.39597 2.13846C2.01956 2.56664 1.81212 3.11735 1.8125 3.68746C1.81405 5.67611 2.60473 7.58286 4.01091 8.98905C5.4171 10.3952 7.32385 11.1859 9.3125 11.1875C9.88261 11.1878 10.4333 10.9804 10.8615 10.604C11.2897 10.2276 11.566 9.708 11.6387 9.14254L8.89062 7.97066L7.42578 8.94918C7.291 9.03828 7.13547 9.09104 6.97429 9.10233C6.81311 9.11363 6.65175 9.08307 6.50586 9.01363C5.41422 8.48557 4.53121 7.60669 3.99805 6.51754C3.92775 6.37214 3.89621 6.21105 3.90647 6.04988C3.91674 5.88871 3.96847 5.73292 4.05664 5.59761L5.03516 4.10933L3.85742 1.36129Z" fill="#515151"/>
</svg>
