<svg width="15" height="20" viewBox="0 0 15 20" fill="none" xmlns="http://www.w3.org/2000/svg">
<path d="M14.4779 13.6511C14.4779 13.368 14.4253 13.0876 14.3229 12.8261C14.2206 12.5645 14.0706 12.3269 13.8816 12.1267C13.6925 11.9266 13.4681 11.7679 13.221 11.6596C12.974 11.5513 12.7093 11.4957 12.442 11.4958H2.03596C1.76856 11.4957 1.50376 11.5514 1.25669 11.6597C1.00962 11.768 0.785134 11.9268 0.596054 12.1271C0.406974 12.3273 0.257011 12.5651 0.154736 12.8267C0.0524618 13.0884 -0.000118722 13.3689 2.0128e-07 13.6521V14.205C2.0128e-07 15.0608 0.288654 15.8879 0.812575 16.5386C2.23051 18.2961 4.38953 19.1644 7.23535 19.1644C10.0821 19.1644 12.242 18.2971 13.6618 16.5395C14.1883 15.8884 14.4778 15.0594 14.4779 14.2021V13.6511V13.6511ZM2.03506 12.9333H12.442C12.8157 12.9333 13.1188 13.2543 13.1188 13.6521V14.2031C13.119 14.7172 12.9457 15.2144 12.6302 15.6051C11.4928 17.012 9.71289 17.7259 7.23445 17.7259C4.75691 17.7259 2.97793 17.012 1.84413 15.6051C1.52938 15.2148 1.35644 14.7183 1.3564 14.205V13.6511C1.35664 13.4608 1.42812 13.2784 1.55518 13.1438C1.68223 13.0093 1.85448 12.9336 2.03415 12.9333H2.03506ZM11.7606 4.79227C11.7607 3.7831 11.46 2.79965 10.9013 1.98216C10.3426 1.16466 9.55447 0.55485 8.64926 0.239677C7.74405 -0.0754955 6.76799 -0.0799389 5.86026 0.22698C4.95253 0.5339 4.15946 1.13651 3.59415 1.94889C3.52858 1.9269 3.46024 1.91559 3.39146 1.91535H1.13109C0.9511 1.91535 0.778481 1.99108 0.651209 2.12587C0.523937 2.26066 0.452436 2.44348 0.452436 2.6341V7.90302C0.452198 8.24927 0.516387 8.59217 0.641334 8.91214C0.766281 9.2321 0.949538 9.52285 1.18063 9.76778C1.41172 10.0127 1.68612 10.207 1.98815 10.3396C2.29017 10.4721 2.6139 10.5403 2.94083 10.5403H3.16705V10.5365H3.1761C3.32941 10.5368 3.48025 10.4957 3.61442 10.4171C3.74859 10.3386 3.86167 10.2251 3.943 10.0875C4.02433 9.94987 4.07124 9.79257 4.07931 9.63043C4.08738 9.46829 4.05634 9.30665 3.98912 9.16072C3.92189 9.0148 3.8207 8.8894 3.69507 8.79635C3.56944 8.70329 3.42351 8.64564 3.27102 8.62883C3.11854 8.61201 2.96452 8.63659 2.82349 8.70024C2.68245 8.76389 2.55904 8.86451 2.46487 8.99264C2.26892 8.89637 2.10309 8.74269 1.98699 8.54977C1.87089 8.35685 1.80939 8.13275 1.80974 7.90397V7.66535H2.48659C2.83044 7.66535 3.14986 7.54843 3.40956 7.35102C3.93292 8.22978 4.7118 8.90457 5.6288 9.2737C6.54581 9.64284 7.55125 9.68631 8.49362 9.39757C9.43598 9.10883 10.2642 8.50353 10.8535 7.67288C11.4427 6.84222 11.7611 5.83124 11.7606 4.79227V4.79227ZM2.7119 4.69068C2.71058 4.7584 2.71058 4.82613 2.7119 4.89385V5.98731C2.7119 6.05085 2.68807 6.11179 2.64564 6.15672C2.60322 6.20165 2.54568 6.22689 2.48568 6.22689H1.80974V3.35381H2.71281V4.69068H2.7119ZM4.06921 4.87756V4.70698C4.09039 3.82507 4.43878 2.9875 5.03891 2.37571C5.63904 1.76392 6.44259 1.42715 7.2755 1.43837C8.10842 1.44959 8.90362 1.80788 9.48887 2.43564C10.0741 3.0634 10.4023 3.91007 10.4023 4.79227C10.4023 5.67446 10.0741 6.52114 9.48887 7.14889C8.90362 7.77665 8.10842 8.13494 7.2755 8.14616C6.44259 8.15738 5.63904 7.82062 5.03891 7.20882C4.43878 6.59703 4.09039 5.75947 4.06921 4.87756V4.87756Z" fill="#222222"/>
</svg>
