<svg width="15" height="19" viewBox="0 0 15 19" fill="none" xmlns="http://www.w3.org/2000/svg">
<path d="M0.375 18.2083V12.6666C0.375 11.5715 0.761069 10.6378 1.53321 9.86571C2.30482 9.0941 3.23819 8.70829 4.33333 8.70829H5.125V2.37496C5.125 1.93954 5.28017 1.56667 5.5905 1.25633C5.90031 0.946529 6.27292 0.791626 6.70833 0.791626H8.29167C8.72708 0.791626 9.09996 0.946529 9.41029 1.25633C9.7201 1.56667 9.875 1.93954 9.875 2.37496V8.70829H10.6667C11.7618 8.70829 12.6954 9.0941 13.4676 9.86571C14.2392 10.6378 14.625 11.5715 14.625 12.6666V18.2083H0.375ZM1.95833 16.625H3.54167V14.25C3.54167 14.0257 3.6174 13.8378 3.76888 13.6863C3.92088 13.5343 4.10903 13.4583 4.33333 13.4583C4.55764 13.4583 4.74579 13.5343 4.89779 13.6863C5.04926 13.8378 5.125 14.0257 5.125 14.25V16.625H6.70833V14.25C6.70833 14.0257 6.78433 13.8378 6.93633 13.6863C7.08781 13.5343 7.27569 13.4583 7.5 13.4583C7.72431 13.4583 7.91246 13.5343 8.06446 13.6863C8.21593 13.8378 8.29167 14.0257 8.29167 14.25V16.625H9.875V14.25C9.875 14.0257 9.951 13.8378 10.103 13.6863C10.2545 13.5343 10.4424 13.4583 10.6667 13.4583C10.891 13.4583 11.0789 13.5343 11.2303 13.6863C11.3823 13.8378 11.4583 14.0257 11.4583 14.25V16.625H13.0417V12.6666C13.0417 12.0069 12.8108 11.4461 12.349 10.9843C11.8872 10.5225 11.3264 10.2916 10.6667 10.2916H4.33333C3.67361 10.2916 3.11285 10.5225 2.65104 10.9843C2.18924 11.4461 1.95833 12.0069 1.95833 12.6666V16.625ZM8.29167 8.70829V2.37496H6.70833V8.70829H8.29167Z" fill="#1C1B1F"/>
</svg>
