<svg width="20" height="20" viewBox="0 0 20 20" fill="none" xmlns="http://www.w3.org/2000/svg">
<g clip-path="url(#clip0_288_2144)">
<path d="M11.875 11H2.5L2.49812 1.56625L9.64437 6.51375C9.74887 6.58606 9.87293 6.62479 10 6.62479C10.1271 6.62479 10.2511 6.58606 10.3556 6.51375L17.5 1.56875V7.25H18.75V1C18.7495 0.668632 18.6176 0.350977 18.3833 0.116664C18.149 -0.117649 17.8314 -0.249504 17.5 -0.25H2.5C2.16858 -0.249669 1.85083 -0.117867 1.61648 0.116482C1.38213 0.350831 1.25033 0.668581 1.25 1V11C1.2505 11.3314 1.38235 11.649 1.61666 11.8833C1.85098 12.1176 2.16863 12.2495 2.5 12.25H11.875V11ZM16.1244 1L10 5.24L3.87563 1H16.1244Z" fill="#fff"/>
<path d="M16.25 13.5C17.6307 13.5 18.75 12.3807 18.75 11C18.75 9.61929 17.6307 8.5 16.25 8.5C14.8693 8.5 13.75 9.61929 13.75 11C13.75 12.3807 14.8693 13.5 16.25 13.5Z" fill="#fff"/>
</g>
<defs>
<clipPath id="clip0_288_2144">
<rect width="20" height="20" fill="white"/>
</clipPath>
</defs>
</svg>
