<svg width="18" height="11" viewBox="0 0 18 11" fill="none" xmlns="http://www.w3.org/2000/svg">
<path d="M9.00012 3.25466C9.97258 3.25466 10.9052 3.64097 11.5928 4.32861C12.2805 5.01624 12.6668 5.94887 12.6668 6.92133C12.6668 7.89379 12.2805 8.82642 11.5928 9.51406C10.9052 10.2017 9.97258 10.588 9.00012 10.588C8.02766 10.588 7.09503 10.2017 6.40739 9.51406C5.71976 8.82642 5.33345 7.89379 5.33345 6.92133C5.33345 5.94887 5.71976 5.01624 6.40739 4.32861C7.09503 3.64097 8.02766 3.25466 9.00012 3.25466ZM9.00012 0.041748C13.2287 0.041748 16.8798 2.92925 17.8927 6.97541C17.9371 7.15228 17.9094 7.33953 17.8157 7.49596C17.722 7.6524 17.57 7.76521 17.3931 7.80958C17.2163 7.85395 17.029 7.82624 16.8726 7.73255C16.7161 7.63886 16.6033 7.48686 16.559 7.31C16.1352 5.62591 15.1612 4.13155 13.7915 3.06404C12.4218 1.99653 10.7348 1.417 8.99823 1.41742C7.26165 1.41785 5.57495 1.99819 4.20575 3.06636C2.83655 4.13454 1.86328 5.62937 1.44037 7.31366C1.39288 7.48685 1.27951 7.63458 1.1245 7.72526C0.969498 7.81594 0.785166 7.84237 0.610926 7.7989C0.436687 7.75543 0.286373 7.64551 0.192129 7.49265C0.097885 7.33978 0.0671937 7.15611 0.106618 6.98091C0.603702 4.99858 1.74879 3.23914 3.36006 1.98194C4.97133 0.724745 6.95641 0.0418714 9.00012 0.041748Z" fill="#333"/>
</svg>
