<?xml version="1.0" standalone="no"?>
<!DOCTYPE svg PUBLIC "-//W3C//DTD SVG 20010904//EN"
 "http://www.w3.org/TR/2001/REC-SVG-20010904/DTD/svg10.dtd">
<svg version="1.0" xmlns="http://www.w3.org/2000/svg"
 width="3432.000000pt" height="756.000000pt" viewBox="0 0 3432.000000 756.000000"
 preserveAspectRatio="xMidYMid meet">

<g transform="translate(0.000000,756.000000) scale(0.100000,-0.100000)"
fill="#000000" stroke="none">
<path d="M13 7463 c10 -165 77 -356 178 -505 117 -174 330 -333 534 -401 163
-55 -9 -51 2530 -57 l2340 -5 75 -23 c619 -188 883 -892 533 -1420 -120 -180
-332 -330 -560 -395 -78 -22 -78 -22 -1163 -25 -1155 -3 -1360 2 -1490 38
-156 44 -261 125 -355 274 l-50 79 -6 -224 c-9 -319 -10 -964 -2 -1317 l6
-301 65 95 c130 191 256 260 522 284 75 7 517 10 1275 8 1311 -4 1192 3 1380
-88 257 -124 432 -336 507 -612 32 -117 32 -345 -1 -463 -43 -159 -133 -315
-247 -429 -113 -114 -267 -203 -429 -248 l-80 -23 -2257 -3 -2258 -2 0 935 0
935 533 2 532 3 3 528 2 527 -1060 0 -1060 0 0 -1990 0 -1990 2778 0 c1884 0
2805 3 2862 11 474 58 883 264 1211 607 357 373 549 854 549 1372 0 521 -195
998 -568 1390 l-71 74 93 96 c522 538 687 1345 421 2055 -186 498 -589 916
-1086 1128 -231 99 -450 150 -704 167 -102 6 -1125 10 -2824 10 l-2664 0 6
-97z"/>
<path d="M28172 5733 c-61 -21 -145 -102 -173 -165 -34 -79 -33 -184 4 -259
119 -244 472 -233 567 17 30 80 25 186 -13 260 -32 64 -103 127 -164 148 -58
20 -164 19 -221 -1z"/>
<path d="M9310 3961 l0 -1481 245 0 245 0 0 590 0 590 182 -2 182 -3 336 -585
337 -585 292 -3 c161 -1 290 1 288 5 -2 5 -165 277 -361 605 -196 329 -356
601 -356 605 0 4 28 16 63 26 155 45 317 150 418 270 267 317 256 834 -24
1134 -109 116 -215 183 -378 237 -195 66 -229 68 -881 73 l-588 5 0 -1481z
m1224 1050 c227 -61 336 -210 336 -461 0 -212 -81 -360 -240 -438 -108 -53
-183 -62 -526 -62 l-304 0 0 496 0 496 328 -5 c292 -4 336 -7 406 -26z"/>
<path d="M26537 5404 c-4 -4 -7 -137 -7 -296 l0 -288 -135 0 -135 0 0 -200 0
-200 134 0 135 0 4 -717 c4 -797 3 -785 71 -927 70 -145 199 -238 386 -276 80
-17 136 -20 353 -20 l257 0 -2 203 -3 202 -215 5 c-206 5 -217 6 -259 30 -30
17 -52 40 -68 69 l-23 44 0 693 0 694 283 2 282 3 3 198 2 197 -285 0 -285 0
-2 293 -3 292 -241 3 c-132 1 -243 -1 -247 -4z"/>
<path d="M12785 4846 c-280 -46 -527 -179 -682 -367 -187 -226 -275 -492 -275
-829 0 -163 20 -295 67 -438 151 -461 538 -746 1045 -769 452 -20 830 171
1039 525 33 55 91 188 91 207 0 3 -117 5 -260 5 l-260 0 -40 -64 c-115 -182
-316 -277 -553 -262 -256 17 -450 140 -551 349 -37 76 -76 208 -76 257 0 7
281 10 894 10 l895 0 7 48 c14 86 8 331 -10 426 -48 247 -134 420 -289 583
-151 157 -330 256 -564 308 -95 22 -375 28 -478 11z m390 -422 c100 -27 213
-91 285 -164 94 -94 143 -200 164 -357 l6 -43 -646 0 -647 0 7 46 c3 25 17 77
30 116 79 225 269 386 501 422 56 8 240 -3 300 -20z"/>
<path d="M15214 4844 c-226 -38 -396 -122 -526 -263 -142 -154 -192 -356 -138
-565 27 -107 63 -169 145 -251 79 -79 142 -119 276 -176 87 -38 155 -59 509
-159 309 -87 427 -185 404 -336 -23 -156 -226 -260 -466 -240 -143 12 -256 62
-333 148 -43 47 -85 131 -85 171 l0 27 -255 0 -255 0 0 -28 c0 -16 9 -63 20
-106 102 -398 507 -646 1020 -623 414 19 709 201 806 500 38 115 38 257 0 372
-75 233 -265 373 -661 489 -66 19 -183 53 -259 76 -225 66 -326 124 -371 213
-68 137 11 282 184 334 78 24 275 24 352 1 130 -40 224 -135 256 -258 l18 -70
240 2 240 3 -4 55 c-5 77 -45 211 -89 295 -47 90 -171 217 -267 273 -90 52
-215 95 -334 116 -114 19 -313 20 -427 0z"/>
<path d="M17675 4846 c-280 -46 -527 -179 -682 -367 -187 -226 -275 -492 -275
-829 0 -163 20 -295 67 -438 151 -461 538 -746 1045 -769 452 -20 830 171
1039 525 33 55 91 188 91 207 0 3 -117 5 -260 5 l-260 0 -40 -64 c-115 -182
-316 -277 -553 -262 -256 17 -450 140 -551 349 -37 76 -76 208 -76 257 0 7
281 10 894 10 l895 0 7 48 c14 86 8 331 -10 426 -48 247 -134 420 -289 583
-151 157 -330 256 -564 308 -95 22 -375 28 -478 11z m390 -422 c100 -27 213
-91 285 -164 94 -94 143 -200 164 -357 l6 -43 -646 0 -647 0 7 46 c3 25 17 77
30 116 79 225 269 386 501 422 56 8 240 -3 300 -20z"/>
<path d="M20515 4845 c-164 -31 -280 -90 -391 -200 -44 -44 -90 -93 -102 -110
l-21 -30 -1 158 0 157 -245 0 -245 0 0 -1170 0 -1170 245 0 244 0 3 723 c3
651 5 728 21 782 44 150 119 250 228 306 81 40 161 57 317 65 l132 7 0 248 0
249 -57 -1 c-32 0 -89 -7 -128 -14z"/>
<path d="M24326 4845 c-444 -84 -762 -393 -871 -849 -88 -363 -23 -776 166
-1067 235 -360 650 -544 1069 -474 236 39 414 129 573 291 l67 68 0 -167 0
-167 245 0 245 0 0 1170 0 1170 -245 0 -245 0 0 -161 0 -162 -82 79 c-137 131
-267 204 -447 251 -123 32 -353 41 -475 18z m472 -431 c205 -51 392 -221 473
-428 64 -165 76 -403 30 -579 -85 -325 -353 -539 -676 -539 -162 0 -302 50
-431 153 -124 98 -220 262 -256 438 -17 80 -19 120 -15 241 6 159 20 225 71
335 142 304 476 462 804 379z"/>
<path d="M30015 4849 c-256 -37 -478 -146 -655 -319 -174 -171 -270 -349 -326
-611 -14 -64 -19 -128 -19 -269 0 -201 17 -312 72 -464 165 -460 586 -746
1098 -746 536 0 989 312 1148 790 40 119 59 225 64 366 16 379 -101 695 -346
934 -181 177 -400 282 -666 320 -83 12 -286 11 -370 -1z m364 -435 c109 -28
218 -90 300 -173 88 -88 132 -159 172 -273 83 -245 58 -561 -62 -766 -19 -31
-70 -93 -114 -137 -134 -134 -289 -197 -490 -197 -127 0 -216 21 -318 74 -156
81 -277 241 -328 435 -32 121 -38 366 -11 496 54 257 216 451 442 527 122 41
281 46 409 14z"/>
<path d="M32878 4845 c-170 -32 -329 -110 -443 -217 l-65 -60 0 126 0 126
-245 0 -245 0 0 -1170 0 -1170 245 0 245 0 0 715 c0 612 2 727 16 793 45 220
187 374 396 429 78 20 252 22 328 3 241 -58 385 -233 419 -510 7 -52 11 -343
11 -757 l0 -673 240 0 240 0 0 754 c0 801 -2 833 -50 996 -89 299 -316 516
-625 596 -126 33 -346 42 -467 19z"/>
<path d="M20881 4768 c11 -29 210 -555 443 -1168 l423 -1115 292 0 293 0 444
1165 c244 641 444 1166 444 1167 0 2 -116 3 -258 3 l-258 0 -226 -652 c-125
-359 -273 -785 -329 -946 -56 -161 -104 -290 -108 -287 -3 3 -152 428 -331
943 l-325 937 -262 3 -262 2 20 -52z"/>
<path d="M28040 3650 l0 -1170 245 0 245 0 0 1170 0 1170 -245 0 -245 0 0
-1170z"/>
</g>
</svg>
