<svg width="17" height="17" viewBox="0 0 17 17" fill="none" xmlns="http://www.w3.org/2000/svg">
<path d="M1.93664 16.3109H1.9375H5.875C6.20611 16.3109 6.52365 16.1794 6.75778 15.9453C6.99191 15.7112 7.12344 15.3936 7.12344 15.0625V11.125C7.12344 11.108 7.13019 11.0917 7.1422 11.0797C7.15421 11.0677 7.17051 11.0609 7.1875 11.0609H9.8125C9.82949 11.0609 9.84579 11.0677 9.8578 11.0797C9.86981 11.0917 9.87656 11.108 9.87656 11.125V15.0625C9.87656 15.3936 10.0081 15.7112 10.2422 15.9453C10.4763 16.1794 10.7939 16.3109 11.125 16.3109H15.0625C15.3936 16.3109 15.7112 16.1794 15.9453 15.9453C16.1794 15.7112 16.3109 15.3936 16.3109 15.0625V7.47461L16.3109 7.47439C16.3106 7.30103 16.2738 7.12967 16.2031 6.97137C16.1325 6.81314 16.0294 6.67147 15.9006 6.5555C15.9006 6.55545 15.9005 6.55541 15.9005 6.55537L9.3384 0.58385L9.33776 0.583278C9.10737 0.377207 8.8091 0.263281 8.5 0.263281C8.1909 0.263281 7.89263 0.377207 7.66224 0.583277L7.66224 0.583275L7.6616 0.583853L1.0995 6.55537C1.09945 6.55542 1.09939 6.55546 1.09934 6.55551C0.970567 6.67148 0.867527 6.81314 0.796862 6.97137C0.726167 7.12967 0.689444 7.30103 0.689062 7.47439V7.47461L0.689062 15.0625L0.689063 15.0628C0.69001 15.3935 0.821304 15.7105 1.05446 15.9451L1.0553 15.9459C1.29067 16.1772 1.60666 16.3081 1.93664 16.3109ZM15.1266 7.47141L15.1266 7.47141V7.47461V15.0597C15.1253 15.077 15.1179 15.0933 15.1056 15.1056C15.0933 15.1179 15.077 15.1253 15.0597 15.1266H11.125C11.108 15.1266 11.0917 15.1198 11.0797 15.1078C11.0677 15.0958 11.0609 15.0795 11.0609 15.0625V11.125C11.0609 10.7939 10.9294 10.4763 10.6953 10.2422C10.4612 10.0081 10.1436 9.87656 9.8125 9.87656H7.1875C6.85639 9.87656 6.53885 10.0081 6.30472 10.2422C6.07059 10.4763 5.93906 10.7939 5.93906 11.125V15.0625C5.93906 15.0795 5.93231 15.0958 5.9203 15.1078C5.90829 15.1198 5.89199 15.1266 5.875 15.1266H1.94032C1.92302 15.1253 1.90671 15.1179 1.89442 15.1056C1.88212 15.0933 1.87468 15.077 1.87344 15.0597V7.47461H1.87355L1.87332 7.46987C1.87307 7.46452 1.87419 7.4592 1.87659 7.45441C1.87898 7.44962 1.88257 7.44553 1.887 7.44252L1.89289 7.43852L1.89816 7.43373L8.46066 1.46185L8.46067 1.46186L8.46178 1.46082C8.47214 1.4511 8.4858 1.4457 8.5 1.4457C8.5142 1.4457 8.52786 1.4511 8.53822 1.46082L8.53821 1.46083L8.53938 1.46189L15.1101 7.43377L15.1107 7.43435C15.1159 7.43899 15.12 7.44471 15.1228 7.45112C15.1255 7.45752 15.1268 7.46445 15.1266 7.47141Z" fill="#222222" stroke="#222222" stroke-width="0.2"/>
</svg>
