<svg width="22" height="23" viewBox="0 0 22 23" fill="none" xmlns="http://www.w3.org/2000/svg">
<path d="M4.31118 0C1.94037 0 0 1.99912 0 4.44182V18.2256C0 20.6682 1.94032 22.6667 4.31118 22.6667H17.6895C20.0604 22.6667 22 20.6682 22 18.2256V4.44182C22 1.99917 20.0604 0 17.6895 0H4.31118ZM5.3955 3.74046C6.53226 3.74046 7.23245 4.50933 7.25406 5.52C7.25406 6.50836 6.53221 7.29884 5.37352 7.29884H5.35219C4.23707 7.29884 3.51632 6.5084 3.51632 5.52C3.51632 4.50935 4.25888 3.74046 5.39548 3.74046H5.3955ZM15.1915 8.46421C17.3777 8.46421 19.0166 9.93642 19.0166 13.1001V19.0062H15.6942V13.4961C15.6942 12.1115 15.2133 11.1668 14.011 11.1668C13.0931 11.1668 12.546 11.8035 12.3058 12.4186C12.218 12.6387 12.1964 12.946 12.1964 13.2538V19.0062H8.87401C8.87401 19.0062 8.91761 9.67224 8.87401 8.70576H12.1971V10.1644C12.6386 9.46257 13.4284 8.46419 15.1915 8.46419V8.46421ZM3.7123 8.70651H7.03471V19.0063H3.7123V8.70651Z" fill="black"/>
</svg>
