<svg width="20" height="12" viewBox="0 0 20 12" fill="none" xmlns="http://www.w3.org/2000/svg">
<path d="M0 12V9C0 7.9 0.391667 6.95833 1.175 6.175C1.95833 5.39167 2.9 5 4 5H13V4C13 3.71667 12.9043 3.479 12.713 3.287C12.521 3.09567 12.2833 3 12 3H8C7.71667 3 7.47933 3.09567 7.288 3.287C7.096 3.479 7 3.71667 7 4H5C5 3.16667 5.29167 2.45833 5.875 1.875C6.45833 1.29167 7.16667 1 8 1H12C12.8333 1 13.5417 1.29167 14.125 1.875C14.7083 2.45833 15 3.16667 15 4V8C15.2833 8 15.5207 7.904 15.712 7.712C15.904 7.52067 16 7.28333 16 7V3C16 2.16667 16.2917 1.45833 16.875 0.875C17.4583 0.291667 18.1667 0 19 0H20V2H19C18.7167 2 18.4793 2.09567 18.288 2.287C18.096 2.479 18 2.71667 18 3V7C18 7.83333 17.7083 8.54167 17.125 9.125C16.5417 9.70833 15.8333 10 15 10V12H0ZM2 10H13V7H4C3.45 7 2.97933 7.19567 2.588 7.587C2.196 7.979 2 8.45 2 9V10Z" fill="#1F1F1B"/>
</svg>
