<svg width="20" height="19" viewBox="0 0 20 19" fill="none" xmlns="http://www.w3.org/2000/svg">
<path d="M0 13V11H5V10H3C2.71667 10 2.479 9.904 2.287 9.712C2.09567 9.52067 2 9.28333 2 9C2 8.71667 2.09567 8.479 2.287 8.287C2.479 8.09567 2.71667 8 3 8H5C5.55 8 6.02067 8.19567 6.412 8.587C6.804 8.979 7 9.45 7 10V11H9V4.1C9 2.95 9.4 1.97933 10.2 1.188C11 0.396 11.975 0 13.125 0C13.8917 0 14.6 0.2 15.25 0.6C15.9 1 16.4 1.55 16.75 2.25L17.9 4.55L16.1 5.45L14.95 3.15C14.7667 2.8 14.5083 2.52067 14.175 2.312C13.8417 2.104 13.4833 2 13.1 2C12.5167 2 12.021 2.204 11.613 2.612C11.2043 3.02067 11 3.51667 11 4.1V11H13V10C13 9.45 13.196 8.979 13.588 8.587C13.9793 8.19567 14.45 8 15 8H17C17.2833 8 17.5207 8.09567 17.712 8.287C17.904 8.479 18 8.71667 18 9C18 9.28333 17.904 9.52067 17.712 9.712C17.5207 9.904 17.2833 10 17 10H15V11H20V13H0ZM4 19C3.45 19 2.97933 18.8043 2.588 18.413C2.196 18.021 2 17.55 2 17V13H4V17H16V13H18V17C18 17.55 17.8043 18.021 17.413 18.413C17.021 18.8043 16.55 19 16 19H4Z" fill="#1F1F1B"/>
</svg>
