<svg width="19" height="17" viewBox="0 0 19 17" fill="none" xmlns="http://www.w3.org/2000/svg">
<path fill-rule="evenodd" clip-rule="evenodd" d="M2.85 0C2.09413 0 1.36922 0.370459 0.834746 1.02988C0.300267 1.6893 0 2.58367 0 3.51623V12.8929C0 13.8254 0.300267 14.7198 0.834746 15.3792C1.36922 16.0386 2.09413 16.4091 2.85 16.4091H16.15C16.9059 16.4091 17.6308 16.0386 18.1653 15.3792C18.6997 14.7198 19 13.8254 19 12.8929V3.51623C19 2.58367 18.6997 1.6893 18.1653 1.02988C17.6308 0.370459 16.9059 0 16.15 0H2.85ZM4.75 2.34416H2.85C2.59804 2.34416 2.35641 2.46764 2.17825 2.68745C2.00009 2.90726 1.9 3.20538 1.9 3.51623V4.68831H4.75V2.34416ZM6.65 2.34416V4.68831H17.1V3.51623C17.1 3.20538 16.9999 2.90726 16.8218 2.68745C16.6436 2.46764 16.402 2.34416 16.15 2.34416H6.65ZM4.75 7.03247H1.9V9.37662H4.75V7.03247ZM6.65 9.37662V7.03247H17.1V9.37662H6.65ZM4.75 11.7208H1.9V12.8929C1.9 13.2037 2.00009 13.5018 2.17825 13.7216C2.35641 13.9414 2.59804 14.0649 2.85 14.0649H4.75V11.7208ZM6.65 14.0649V11.7208H17.1V12.8929C17.1 13.2037 16.9999 13.5018 16.8218 13.7216C16.6436 13.9414 16.402 14.0649 16.15 14.0649H6.65Z" fill="#333"/>
</svg>
