<svg width="16" height="20" viewBox="0 0 16 20" fill="none" xmlns="http://www.w3.org/2000/svg">
<path d="M7.66699 10.8333C9.0477 10.8333 10.167 9.71396 10.167 8.33325C10.167 6.95254 9.0477 5.83325 7.66699 5.83325C6.28628 5.83325 5.16699 6.95254 5.16699 8.33325C5.16699 9.71396 6.28628 10.8333 7.66699 10.8333Z" stroke="#222222" stroke-width="2" stroke-linecap="round" stroke-linejoin="round"/>
<path d="M7.66667 1.66663C5.89856 1.66663 4.20286 2.369 2.95262 3.61925C1.70238 4.86949 1 6.56518 1 8.33329C1 9.90996 1.335 10.9416 2.25 12.0833L7.66667 18.3333L13.0833 12.0833C13.9983 10.9416 14.3333 9.90996 14.3333 8.33329C14.3333 6.56518 13.631 4.86949 12.3807 3.61925C11.1305 2.369 9.43478 1.66663 7.66667 1.66663V1.66663Z" stroke="#222222" stroke-width="2" stroke-linecap="round" stroke-linejoin="round"/>
</svg>
