<svg width="13" height="11" viewBox="0 0 13 11" fill="none" xmlns="http://www.w3.org/2000/svg">
<path d="M2.33301 0.333374H10.9997C11.5301 0.333374 12.0388 0.544088 12.4139 0.919161C12.789 1.29423 12.9997 1.80294 12.9997 2.33337V8.33337C12.9997 8.86381 12.789 9.37252 12.4139 9.74759C12.0388 10.1227 11.5301 10.3334 10.9997 10.3334H2.33301C1.80257 10.3334 1.29387 10.1227 0.918794 9.74759C0.543722 9.37252 0.333008 8.86381 0.333008 8.33337V2.33337C0.333008 1.80294 0.543722 1.29423 0.918794 0.919161C1.29387 0.544088 1.80257 0.333374 2.33301 0.333374ZM2.33301 1.00004C2.02019 0.999516 1.71724 1.10955 1.47767 1.31071L6.66634 4.68004L11.855 1.31071C11.6154 1.10965 11.3125 0.999631 10.9997 1.00004H2.33301ZM6.66634 5.47471L1.08901 1.85337C1.02987 2.00649 0.999578 2.16923 0.999674 2.33337V8.33337C0.999674 8.687 1.14015 9.02613 1.3902 9.27618C1.64025 9.52623 1.97939 9.66671 2.33301 9.66671H10.9997C11.3533 9.66671 11.6924 9.52623 11.9425 9.27618C12.1925 9.02613 12.333 8.687 12.333 8.33337V2.33337C12.333 2.16404 12.3017 2.00204 12.2437 1.85337L6.66634 5.47404V5.47471Z" fill="#515151"/>
</svg>
