<svg width="14" height="21" viewBox="0 0 14 21" fill="none" xmlns="http://www.w3.org/2000/svg">
<path d="M3 6C2.16667 6 1.45833 5.70833 0.875 5.125C0.291667 4.54167 0 3.83333 0 3C0 2.16667 0.291667 1.45833 0.875 0.875C1.45833 0.291667 2.16667 0 3 0C3.63333 0 4.20833 0.187333 4.725 0.562C5.24167 0.937333 5.61667 1.41667 5.85 2H14V4H13V6H11V4H5.85C5.61667 4.58333 5.24167 5.06267 4.725 5.438C4.20833 5.81267 3.63333 6 3 6ZM3 4C3.28333 4 3.521 3.904 3.713 3.712C3.90433 3.52067 4 3.28333 4 3C4 2.71667 3.90433 2.479 3.713 2.287C3.521 2.09567 3.28333 2 3 2C2.71667 2 2.479 2.09567 2.287 2.287C2.09567 2.479 2 2.71667 2 3C2 3.28333 2.09567 3.52067 2.287 3.712C2.479 3.904 2.71667 4 3 4ZM4 16.5C4.28333 16.5 4.521 16.404 4.713 16.212C4.90433 16.0207 5 15.7833 5 15.5C5 15.2167 4.90433 14.979 4.713 14.787C4.521 14.5957 4.28333 14.5 4 14.5C3.71667 14.5 3.47933 14.5957 3.288 14.787C3.096 14.979 3 15.2167 3 15.5C3 15.7833 3.096 16.0207 3.288 16.212C3.47933 16.404 3.71667 16.5 4 16.5ZM10 16.5C10.2833 16.5 10.521 16.404 10.713 16.212C10.9043 16.0207 11 15.7833 11 15.5C11 15.2167 10.9043 14.979 10.713 14.787C10.521 14.5957 10.2833 14.5 10 14.5C9.71667 14.5 9.47933 14.5957 9.288 14.787C9.096 14.979 9 15.2167 9 15.5C9 15.7833 9.096 16.0207 9.288 16.212C9.47933 16.404 9.71667 16.5 10 16.5ZM0 13.6L1.65 8.8C1.73333 8.56667 1.87067 8.375 2.062 8.225C2.254 8.075 2.46667 8 2.7 8H11.3C11.5333 8 11.746 8.075 11.938 8.225C12.1293 8.375 12.2667 8.56667 12.35 8.8L14 13.6V20.2C14 20.4333 13.925 20.625 13.775 20.775C13.625 20.925 13.4333 21 13.2 21H12.8C12.5667 21 12.375 20.925 12.225 20.775C12.075 20.625 12 20.4333 12 20.2V19H2V20.2C2 20.4333 1.925 20.625 1.775 20.775C1.625 20.925 1.43333 21 1.2 21H0.8C0.566667 21 0.375 20.925 0.225 20.775C0.0749999 20.625 0 20.4333 0 20.2V13.6ZM2.65 12H11.35L10.65 10H3.35L2.65 12ZM2 17H12V14H2V17Z" fill="#1F1F1B"/>
</svg>
