<svg width="17" height="13" viewBox="0 0 17 13" fill="none" xmlns="http://www.w3.org/2000/svg">
<path d="M3.09524 3.09524C3.09524 2.85135 3.14327 2.60986 3.2366 2.38454C3.32993 2.15922 3.46673 1.95449 3.63918 1.78204C3.81163 1.60959 4.01636 1.47279 4.24168 1.37946C4.467 1.28613 4.7085 1.2381 4.95238 1.2381C5.19626 1.2381 5.43776 1.28613 5.66308 1.37946C5.8884 1.47279 6.09313 1.60959 6.26558 1.78204C6.43803 1.95449 6.57483 2.15922 6.66816 2.38454C6.76149 2.60986 6.80952 2.85135 6.80952 3.09524C6.80952 3.58778 6.61386 4.06015 6.26558 4.40844C5.9173 4.75672 5.44493 4.95238 4.95238 4.95238C4.45984 4.95238 3.98746 4.75672 3.63918 4.40844C3.2909 4.06015 3.09524 3.58778 3.09524 3.09524ZM4.95238 0C4.13147 0 3.34419 0.326104 2.76372 0.906574C2.18325 1.48704 1.85714 2.27433 1.85714 3.09524C1.85714 3.91615 2.18325 4.70343 2.76372 5.2839C3.34419 5.86437 4.13147 6.19048 4.95238 6.19048C5.77329 6.19048 6.56057 5.86437 7.14104 5.2839C7.72151 4.70343 8.04762 3.91615 8.04762 3.09524C8.04762 2.27433 7.72151 1.48704 7.14104 0.906574C6.56057 0.326104 5.77329 0 4.95238 0ZM11.1429 3.71429C11.1429 3.38592 11.2733 3.07101 11.5055 2.83882C11.7377 2.60663 12.0526 2.47619 12.381 2.47619C12.7093 2.47619 13.0242 2.60663 13.2564 2.83882C13.4886 3.07101 13.619 3.38592 13.619 3.71429C13.619 4.04265 13.4886 4.35756 13.2564 4.58975C13.0242 4.82194 12.7093 4.95238 12.381 4.95238C12.0526 4.95238 11.7377 4.82194 11.5055 4.58975C11.2733 4.35756 11.1429 4.04265 11.1429 3.71429ZM12.381 1.2381C11.7242 1.2381 11.0944 1.49898 10.63 1.96335C10.1656 2.42773 9.90476 3.05756 9.90476 3.71429C9.90476 4.37101 10.1656 5.00084 10.63 5.46522C11.0944 5.92959 11.7242 6.19048 12.381 6.19048C13.0377 6.19048 13.6675 5.92959 14.1319 5.46522C14.5963 5.00084 14.8571 4.37101 14.8571 3.71429C14.8571 3.05756 14.5963 2.42773 14.1319 1.96335C13.6675 1.49898 13.0377 1.2381 12.381 1.2381ZM0 9.28572C0 8.79317 0.195663 8.3208 0.543945 7.97252C0.892226 7.62423 1.3646 7.42857 1.85714 7.42857H8.04762C8.54016 7.42857 9.01254 7.62423 9.36082 7.97252C9.7091 8.3208 9.90476 8.79317 9.90476 9.28572V9.42438C9.90345 9.48109 9.89932 9.5377 9.89238 9.594C9.82183 10.1942 9.59845 10.7663 9.24362 11.2555C8.56638 12.1903 7.27876 13 4.95238 13C2.62724 13 1.33962 12.1903 0.659905 11.2555C0.305514 10.7662 0.0825684 10.1941 0.0123809 9.594C0.00621724 9.53763 0.00208759 9.48105 0 9.42438V9.28572ZM1.2381 9.39714V9.40581L1.24305 9.46648C1.29099 9.84975 1.43493 10.2147 1.66152 10.5275C2.06514 11.0822 2.94419 11.7619 4.95238 11.7619C6.96057 11.7619 7.83962 11.0822 8.24324 10.5275C8.46983 10.2147 8.61377 9.84975 8.66171 9.46648C8.66393 9.44589 8.66558 9.42525 8.66667 9.40457V9.28572C8.66667 9.12153 8.60145 8.96408 8.48535 8.84798C8.36926 8.73189 8.2118 8.66667 8.04762 8.66667H1.85714C1.69296 8.66667 1.5355 8.73189 1.41941 8.84798C1.30332 8.96408 1.2381 9.12153 1.2381 9.28572V9.39714ZM12.381 11.7619C11.653 11.7619 11.0562 11.6505 10.5733 11.4672C10.7718 11.1037 10.9221 10.7158 11.0203 10.3133C11.3521 10.4384 11.7929 10.5238 12.381 10.5238C13.7664 10.5238 14.3347 10.0509 14.5848 9.69924C14.7309 9.49415 14.8237 9.25585 14.8547 9.00591L14.8571 8.97124C14.8558 8.89001 14.8227 8.81255 14.7648 8.75557C14.7068 8.69859 14.6289 8.66666 14.5476 8.66667H11.081C10.9895 8.21769 10.7992 7.79474 10.5238 7.42857H14.5476C15.4019 7.42857 16.0952 8.12191 16.0952 8.97619V8.99724C16.0938 9.04234 16.0905 9.08736 16.0853 9.13219C16.0329 9.59623 15.8633 10.0393 15.5926 10.4198C15.0701 11.1515 14.0908 11.7619 12.381 11.7619Z" fill="#515151"/>
</svg>
