<svg width="13" height="16" viewBox="0 0 13 16" fill="none" xmlns="http://www.w3.org/2000/svg">
<path d="M4.17091 9.82596C4.07126 9.71521 3.94485 9.64018 3.80756 9.61031C3.67027 9.58044 3.52823 9.59705 3.39928 9.65807C3.31143 9.69397 3.23164 9.75126 3.16558 9.82587C3.09952 9.90048 3.0488 9.99058 3.017 10.0898C2.97114 10.2114 2.95268 10.3439 2.96328 10.4755C2.97387 10.6071 3.01319 10.7337 3.07771 10.844C3.14223 10.9542 3.22995 11.0447 3.33301 11.1073C3.43607 11.1699 3.55127 11.2027 3.66829 11.2027C3.7853 11.2027 3.9005 11.1699 4.00356 11.1073C4.10662 11.0447 4.19434 10.9542 4.25886 10.844C4.32338 10.7337 4.3627 10.6071 4.37329 10.4755C4.38389 10.3439 4.36543 10.2114 4.31957 10.0898C4.28376 9.99289 4.23347 9.90365 4.17091 9.82596ZM9.83424 9.82596C9.69734 9.6833 9.5179 9.60409 9.33162 9.60409C9.14535 9.60409 8.9659 9.6833 8.829 9.82596C8.76644 9.90365 8.71615 9.99289 8.68034 10.0898C8.62517 10.2352 8.60985 10.3959 8.63635 10.5513C8.66285 10.7066 8.72995 10.8494 8.829 10.9613C8.89779 11.0319 8.9768 11.0887 9.06261 11.1292C9.14736 11.1714 9.23898 11.1932 9.33162 11.1932C9.42426 11.1932 9.51588 11.1714 9.60063 11.1292C9.68635 11.0885 9.76535 11.0318 9.83424 10.9613C9.93329 10.8494 10.0004 10.7066 10.0269 10.5513C10.0534 10.3959 10.0381 10.2352 9.98291 10.0898C9.94709 9.99289 9.89681 9.90365 9.83424 9.82596ZM11.6748 13.5077C12.1759 13.0565 12.5584 12.4594 12.781 11.7806C13.0036 11.1019 13.0578 10.3674 12.9377 9.65647L11.8759 3.2604C11.7237 2.34409 11.2926 1.51669 10.6574 0.921318C10.0222 0.325945 9.22266 4.78088e-05 8.39717 0H4.60203C3.77666 0.000234238 2.97731 0.326216 2.34222 0.921573C1.70713 1.51693 1.27623 2.34423 1.12403 3.2604L0.062156 9.65647C-0.0577806 10.3675 -0.00346844 11.102 0.219229 11.7808C0.441926 12.4595 0.824549 13.0566 1.32579 13.5077L0.33612 14.6254C0.268507 14.6992 0.214576 14.7874 0.177475 14.8849C0.140374 14.9825 0.120845 15.0874 0.120028 15.1935C0.119211 15.2997 0.137123 15.405 0.172717 15.5032C0.208312 15.6015 0.260877 15.6908 0.327345 15.7658C0.393814 15.8409 0.472854 15.9003 0.559854 15.9405C0.646855 15.9807 0.740073 16.0009 0.83407 16C0.928066 15.999 1.02096 15.977 1.10733 15.9351C1.1937 15.8932 1.27181 15.8323 1.33711 15.7559L2.66092 14.2608C2.94778 14.3456 3.24293 14.3894 3.53944 14.3912H9.45905C9.75601 14.3898 10.0516 14.3463 10.339 14.2616L11.6621 15.7559C11.7956 15.9016 11.9744 15.9821 12.16 15.9803C12.3456 15.9785 12.5232 15.8944 12.6545 15.7462C12.7857 15.5979 12.8602 15.3974 12.8618 15.1878C12.8634 14.9782 12.792 14.7762 12.6631 14.6254L11.6748 13.5077ZM2.51438 3.55542C2.60597 3.00553 2.8648 2.50906 3.24613 2.15183C3.62745 1.7946 4.1073 1.59906 4.60274 1.59902H8.39859C8.89378 1.59944 9.37329 1.79514 9.75432 2.15234C10.1354 2.50954 10.394 3.0058 10.4855 3.55542L10.7312 5.03451C10.2027 5.71386 9.55193 6.25812 8.82242 6.63096C8.09291 7.0038 7.30139 7.19665 6.50066 7.19665C5.69993 7.19665 4.90841 7.0038 4.1789 6.63096C3.44939 6.25812 2.79867 5.71386 2.27015 5.03451L2.51438 3.55542ZM11.0922 11.9255C10.8934 12.1968 10.644 12.4152 10.3618 12.565C10.0796 12.7149 9.77158 12.7924 9.45975 12.7921H3.54015C3.22812 12.7921 2.91994 12.7143 2.63753 12.5645C2.35511 12.4147 2.1054 12.1964 1.90616 11.9252C1.70692 11.654 1.56304 11.3365 1.48475 10.9954C1.40646 10.6543 1.3957 10.2978 1.45321 9.95148L1.95654 6.91975C3.22766 8.13068 4.83702 8.79488 6.49995 8.79488C8.16289 8.79488 9.77225 8.13068 11.0434 6.91975L11.546 9.95148C11.604 10.2979 11.5935 10.6545 11.5152 10.9958C11.4368 11.337 11.2927 11.6545 11.0929 11.9255H11.0922Z" fill="#515151"/>
</svg>
