<svg width="18" height="19" viewBox="0 0 18 19" fill="none" xmlns="http://www.w3.org/2000/svg">
<path d="M14.9088 12.1982H10.8428V10.8429H14.9088V12.1982ZM17.6195 17.6197H13.5535V16.2643H17.6195V17.6197ZM16.2642 14.909H12.1981V13.5536H16.2642V14.909Z" fill="#515151"/>
<path d="M8.81208 12.1982C8.8073 11.6264 8.65479 11.0655 8.36935 10.57C8.0839 10.0745 7.67521 9.6612 7.18295 9.37022L12.1984 0.677676L11.026 0L5.8913 8.89517C5.26113 8.7544 4.60571 8.77386 3.98501 8.9518C3.36431 9.12974 2.79812 9.46046 2.33824 9.91372C-0.198977 12.3608 -0.00245059 18.0817 0.00703688 18.3244C0.0140421 18.4993 0.0885207 18.6648 0.214858 18.7861C0.341196 18.9074 0.509581 18.9751 0.684713 18.9749H10.8438C10.986 18.9749 11.1246 18.9302 11.24 18.847C11.3554 18.7638 11.4417 18.6465 11.4867 18.5115C11.5316 18.3766 11.533 18.231 11.4906 18.0952C11.4482 17.9594 11.3641 17.8404 11.2504 17.7551C8.85139 15.9552 8.81208 12.2348 8.81208 12.1982ZM5.37423 10.1631C5.91662 10.1691 6.43584 10.3839 6.82384 10.763C7.21185 11.142 7.43878 11.6561 7.45741 12.1982C7.45741 12.2239 7.45876 12.3391 7.46893 12.516L3.47064 10.7378C3.73401 10.5206 4.03793 10.358 4.36473 10.2593C4.69153 10.1606 5.03468 10.1279 5.37423 10.1631ZM7.75965 17.6196C7.21798 17.068 6.8727 16.3537 6.77702 15.5865H5.42167C5.4702 16.3078 5.69549 17.006 6.07766 17.6196H4.57118C4.29249 16.7401 4.12293 15.8297 4.06632 14.9089H2.71096C2.75467 15.827 2.90592 16.7367 3.16162 17.6196H1.35561C1.37662 16.3754 1.55214 13.6267 2.57746 11.8234L7.68239 14.0936C7.92767 15.3672 8.45058 16.5711 9.21394 17.6196H7.75965Z" fill="#515151"/>
</svg>
