<svg width="16" height="12" viewBox="0 0 16 12" fill="none" xmlns="http://www.w3.org/2000/svg">
<path d="M8 12C7.89138 12 7.63883 11.7892 7.24236 11.3677C6.84589 10.9462 6.64766 10.6781 6.64766 10.5634C6.64766 10.3799 6.81738 10.2251 7.15682 10.0989C7.49627 9.97276 7.77733 9.90968 8 9.90968C8.22268 9.90968 8.50373 9.97276 8.84318 10.0989C9.18262 10.2251 9.35234 10.3799 9.35234 10.5634C9.35234 10.6781 9.15411 10.9462 8.75764 11.3677C8.36117 11.7892 8.10862 12 8 12ZM10.1996 9.66882C10.1887 9.66882 10.0801 9.59713 9.87373 9.45376C9.66735 9.31039 9.39172 9.16703 9.04684 9.02366C8.70197 8.88029 8.35302 8.8086 8 8.8086C7.64698 8.8086 7.29803 8.88029 6.95316 9.02366C6.60828 9.16703 6.33401 9.31039 6.13035 9.45376C5.92668 9.59713 5.8167 9.66882 5.80041 9.66882C5.70265 9.66882 5.44874 9.45376 5.0387 9.02366C4.62865 8.59355 4.42363 8.32688 4.42363 8.22366C4.42363 8.1491 4.45078 8.08315 4.50509 8.02581C4.92872 7.58423 5.46096 7.23728 6.10183 6.98495C6.7427 6.73262 7.37542 6.60645 8 6.60645C8.62458 6.60645 9.2573 6.73262 9.89817 6.98495C10.539 7.23728 11.0713 7.58423 11.4949 8.02581C11.5492 8.08315 11.5764 8.1491 11.5764 8.22366C11.5764 8.32688 11.3714 8.59355 10.9613 9.02366C10.5513 9.45376 10.2974 9.66882 10.1996 9.66882ZM12.4236 7.32903C12.3639 7.32903 12.3014 7.30609 12.2363 7.26022C11.4976 6.65806 10.8133 6.21505 10.1833 5.93118C9.55329 5.64731 8.82553 5.50538 8 5.50538C7.53836 5.50538 7.07536 5.56846 6.611 5.69462C6.14664 5.82079 5.74202 5.97276 5.39715 6.15054C5.05227 6.32832 4.74406 6.50609 4.47251 6.68387C4.20095 6.86165 3.98642 7.01362 3.82892 7.13979C3.67142 7.26595 3.58724 7.32903 3.57638 7.32903C3.48405 7.32903 3.23422 7.11398 2.82688 6.68387C2.41955 6.25376 2.21589 5.9871 2.21589 5.88387C2.21589 5.81505 2.24304 5.75197 2.29735 5.69462C3.01426 4.93763 3.88323 4.34982 4.90428 3.93118C5.92532 3.51254 6.95723 3.30323 8 3.30323C9.04277 3.30323 10.0747 3.51254 11.0957 3.93118C12.1168 4.34982 12.9857 4.93763 13.7026 5.69462C13.757 5.75197 13.7841 5.81505 13.7841 5.88387C13.7841 5.9871 13.5804 6.25376 13.1731 6.68387C12.7658 7.11398 12.516 7.32903 12.4236 7.32903ZM14.6314 4.99785C14.5716 4.99785 14.5119 4.97204 14.4521 4.92043C13.48 4.02007 12.4711 3.34194 11.4257 2.88602C10.3802 2.43011 9.23829 2.20215 8 2.20215C6.76171 2.20215 5.61982 2.43011 4.57434 2.88602C3.52885 3.34194 2.52003 4.02007 1.54786 4.92043C1.48812 4.97204 1.42838 4.99785 1.36864 4.99785C1.27631 4.99785 1.02512 4.7828 0.615071 4.35269C0.205024 3.92258 0 3.65591 0 3.55269C0 3.47814 0.0271555 3.41219 0.0814664 3.35484C1.09708 2.28817 2.3055 1.46237 3.70672 0.877419C5.10794 0.292473 6.53904 0 8 0C9.46096 0 10.8921 0.292473 12.2933 0.877419C13.6945 1.46237 14.9029 2.28817 15.9185 3.35484C15.9728 3.41219 16 3.47814 16 3.55269C16 3.65591 15.795 3.92258 15.3849 4.35269C14.9749 4.7828 14.7237 4.99785 14.6314 4.99785Z" fill="#515151"/>
</svg>
