<svg width="12" height="12" viewBox="0 0 12 12" fill="none" xmlns="http://www.w3.org/2000/svg">
<path d="M0 0.666667C0 0.489856 0.0702379 0.320286 0.195262 0.195262C0.320286 0.0702379 0.489856 0 0.666667 0H2.66667C2.84348 0 3.01305 0.0702379 3.13807 0.195262C3.2631 0.320286 3.33333 0.489856 3.33333 0.666667V2.66667C3.33333 2.84348 3.2631 3.01305 3.13807 3.13807C3.01305 3.2631 2.84348 3.33333 2.66667 3.33333H0.666667C0.489856 3.33333 0.320286 3.2631 0.195262 3.13807C0.0702379 3.01305 0 2.84348 0 2.66667V0.666667ZM0 5C0 4.82319 0.0702379 4.65362 0.195262 4.5286C0.320286 4.40357 0.489856 4.33333 0.666667 4.33333H2.66667C2.84348 4.33333 3.01305 4.40357 3.13807 4.5286C3.2631 4.65362 3.33333 4.82319 3.33333 5V7C3.33333 7.17681 3.2631 7.34638 3.13807 7.4714C3.01305 7.59643 2.84348 7.66667 2.66667 7.66667H0.666667C0.489856 7.66667 0.320286 7.59643 0.195262 7.4714C0.0702379 7.34638 0 7.17681 0 7V5ZM0 9.33333C0 9.15652 0.0702379 8.98695 0.195262 8.86193C0.320286 8.7369 0.489856 8.66667 0.666667 8.66667H2.66667C2.84348 8.66667 3.01305 8.7369 3.13807 8.86193C3.2631 8.98695 3.33333 9.15652 3.33333 9.33333V11.3333C3.33333 11.5101 3.2631 11.6797 3.13807 11.8047C3.01305 11.9298 2.84348 12 2.66667 12H0.666667C0.489856 12 0.320286 11.9298 0.195262 11.8047C0.0702379 11.6797 0 11.5101 0 11.3333V9.33333ZM4.33333 0.666667C4.33333 0.489856 4.40357 0.320286 4.5286 0.195262C4.65362 0.0702379 4.82319 0 5 0H7C7.17681 0 7.34638 0.0702379 7.4714 0.195262C7.59643 0.320286 7.66667 0.489856 7.66667 0.666667V2.66667C7.66667 2.84348 7.59643 3.01305 7.4714 3.13807C7.34638 3.2631 7.17681 3.33333 7 3.33333H5C4.82319 3.33333 4.65362 3.2631 4.5286 3.13807C4.40357 3.01305 4.33333 2.84348 4.33333 2.66667V0.666667ZM4.33333 5C4.33333 4.82319 4.40357 4.65362 4.5286 4.5286C4.65362 4.40357 4.82319 4.33333 5 4.33333H7C7.17681 4.33333 7.34638 4.40357 7.4714 4.5286C7.59643 4.65362 7.66667 4.82319 7.66667 5V7C7.66667 7.17681 7.59643 7.34638 7.4714 7.4714C7.34638 7.59643 7.17681 7.66667 7 7.66667H5C4.82319 7.66667 4.65362 7.59643 4.5286 7.4714C4.40357 7.34638 4.33333 7.17681 4.33333 7V5ZM4.33333 9.33333C4.33333 9.15652 4.40357 8.98695 4.5286 8.86193C4.65362 8.7369 4.82319 8.66667 5 8.66667H7C7.17681 8.66667 7.34638 8.7369 7.4714 8.86193C7.59643 8.98695 7.66667 9.15652 7.66667 9.33333V11.3333C7.66667 11.5101 7.59643 11.6797 7.4714 11.8047C7.34638 11.9298 7.17681 12 7 12H5C4.82319 12 4.65362 11.9298 4.5286 11.8047C4.40357 11.6797 4.33333 11.5101 4.33333 11.3333V9.33333ZM8.66667 0.666667C8.66667 0.489856 8.7369 0.320286 8.86193 0.195262C8.98695 0.0702379 9.15652 0 9.33333 0H11.3333C11.5101 0 11.6797 0.0702379 11.8047 0.195262C11.9298 0.320286 12 0.489856 12 0.666667V2.66667C12 2.84348 11.9298 3.01305 11.8047 3.13807C11.6797 3.2631 11.5101 3.33333 11.3333 3.33333H9.33333C9.15652 3.33333 8.98695 3.2631 8.86193 3.13807C8.7369 3.01305 8.66667 2.84348 8.66667 2.66667V0.666667ZM8.66667 5C8.66667 4.82319 8.7369 4.65362 8.86193 4.5286C8.98695 4.40357 9.15652 4.33333 9.33333 4.33333H11.3333C11.5101 4.33333 11.6797 4.40357 11.8047 4.5286C11.9298 4.65362 12 4.82319 12 5V7C12 7.17681 11.9298 7.34638 11.8047 7.4714C11.6797 7.59643 11.5101 7.66667 11.3333 7.66667H9.33333C9.15652 7.66667 8.98695 7.59643 8.86193 7.4714C8.7369 7.34638 8.66667 7.17681 8.66667 7V5ZM8.66667 9.33333C8.66667 9.15652 8.7369 8.98695 8.86193 8.86193C8.98695 8.7369 9.15652 8.66667 9.33333 8.66667H11.3333C11.5101 8.66667 11.6797 8.7369 11.8047 8.86193C11.9298 8.98695 12 9.15652 12 9.33333V11.3333C12 11.5101 11.9298 11.6797 11.8047 11.8047C11.6797 11.9298 11.5101 12 11.3333 12H9.33333C9.15652 12 8.98695 11.9298 8.86193 11.8047C8.7369 11.6797 8.66667 11.5101 8.66667 11.3333V9.33333Z" fill="#222222"/>
</svg>
