<svg width="22" height="17" viewBox="0 0 22 17" fill="none" xmlns="http://www.w3.org/2000/svg">
<path d="M5.82083 11.0708L3.89583 9.09996C4.79722 8.19857 5.85536 7.48449 7.07025 6.95771C8.28453 6.43032 9.59444 6.16663 11 6.16663C12.4056 6.16663 13.7158 6.43399 14.9307 6.96871C16.1449 7.50343 17.2028 8.22913 18.1042 9.14579L16.1792 11.0708C15.5069 10.3986 14.7278 9.87149 13.8417 9.48954C12.9556 9.1076 12.0083 8.91663 11 8.91663C9.99167 8.91663 9.04444 9.1076 8.15833 9.48954C7.27222 9.87149 6.49306 10.3986 5.82083 11.0708ZM1.925 7.17496L0 5.24996C1.40556 3.81385 3.04792 2.69093 4.92708 1.88121C6.80625 1.07149 8.83056 0.666626 11 0.666626C13.1694 0.666626 15.1938 1.07149 17.0729 1.88121C18.9521 2.69093 20.5944 3.81385 22 5.24996L20.075 7.17496C18.8986 5.99857 17.5352 5.07793 15.9848 4.41304C14.4338 3.74876 12.7722 3.41663 11 3.41663C9.22778 3.41663 7.56617 3.74876 6.01517 4.41304C4.46478 5.07793 3.10139 5.99857 1.925 7.17496ZM11 16.25L14.2312 12.9958C13.8188 12.5833 13.3375 12.2585 12.7875 12.0214C12.2375 11.7849 11.6417 11.6666 11 11.6666C10.3583 11.6666 9.7625 11.7849 9.2125 12.0214C8.6625 12.2585 8.18125 12.5833 7.76875 12.9958L11 16.25Z" fill="#1F1F1B"/>
</svg>
